<svg width="169" height="53" viewBox="0 0 169 53" version="1.1" xmlns="http://www.w3.org/2000/svg" xmlns:xlink="http://www.w3.org/1999/xlink">
<title>logo</title>
<desc>Created using Figma</desc>
<g id="Canvas" transform="translate(6013 2873)">
<g id="logo">
<g id="Group">
<g id="Group">
<g id="Vector">
<use xlink:href="#path0_fill" transform="translate(-5999.18 -2859.17)" fill="#46C35F"/>
</g>
<g id="Vector">
<use xlink:href="#path1_fill" transform="translate(-5980.57 -2873)" fill="#D7DF23"/>
</g>
<g id="Vector">
<use xlink:href="#path2_fill" transform="translate(-5996.84 -2868.56)" fill="#D7DF23"/>
</g>
<g id="Vector">
<use xlink:href="#path3_fill" transform="translate(-6008.71 -2856.6)" fill="#D7DF23"/>
</g>
<g id="Vector">
<use xlink:href="#path4_fill" transform="translate(-6013 -2840.33)" fill="#D7DF23"/>
</g>
<g id="Vector">
<use xlink:href="#path5_fill" transform="translate(-6008.55 -2826.25)" fill="#D7DF23"/>
</g>
<g id="Vector">
<use xlink:href="#path6_fill" transform="translate(-5955.85 -2826.53)" fill="#D7DF23"/>
</g>
<g id="Vector">
<use xlink:href="#path7_fill" transform="translate(-5952.14 -2840.65)" fill="#D7DF23"/>
</g>
<g id="Vector">
<use xlink:href="#path8_fill" transform="translate(-5956.01 -2856.89)" fill="#D7DF23"/>
</g>
<g id="Vector">
<use xlink:href="#path9_fill" transform="translate(-5966.42 -2868.73)" fill="#D7DF23"/>
</g>
</g>
</g>
<g id="Group">
<g id="Layer 1">
<g id="Group">
<g id="Vector">
<use xlink:href="#path10_fill" transform="translate(-5935 -2871)" fill="#46C35F"/>
</g>
<g id="Vector">
<use xlink:href="#path11_fill" transform="translate(-5908.42 -2863.95)" fill="#46C35F"/>
</g>
<g id="Vector">
<use xlink:href="#path12_fill" transform="translate(-5889.5 -2871)" fill="#46C35F"/>
</g>
<g id="Vector">
<use xlink:href="#path13_fill" transform="translate(-5868.62 -2871)" fill="#46C35F"/>
</g>
<g id="Vector">
<use xlink:href="#path14_fill" transform="translate(-5847.61 -2871)" fill="#46C35F"/>
</g>
</g>
<g id="Group">
<g id="Vector">
<use xlink:href="#path15_fill" transform="translate(-5935 -2832.88)" fill="#B4CB01"/>
</g>
<g id="Vector">
<use xlink:href="#path16_fill" transform="translate(-5924.18 -2832.82)" fill="#B4CB01"/>
</g>
<g id="Vector">
<use xlink:href="#path17_fill" transform="translate(-5916.46 -2827.36)" fill="#B4CB01"/>
</g>
<g id="Vector">
<use xlink:href="#path18_fill" transform="translate(-5913.31 -2832.88)" fill="#B4CB01"/>
</g>
<g id="Vector">
<use xlink:href="#path19_fill" transform="translate(-5906.72 -2834.3)" fill="#B4CB01"/>
</g>
<g id="Vector">
<use xlink:href="#path20_fill" transform="translate(-5899.95 -2835.74)" fill="#B4CB01"/>
</g>
<g id="Vector">
<use xlink:href="#path21_fill" transform="translate(-5896.8 -2827.36)" fill="#B4CB01"/>
</g>
<g id="Vector">
<use xlink:href="#path22_fill" transform="translate(-5893.64 -2832.85)" fill="#B4CB01"/>
</g>
<g id="Vector">
<use xlink:href="#path23_fill" transform="translate(-5886.73 -2836.41)" fill="#B4CB01"/>
</g>
<g id="Vector">
<use xlink:href="#path24_fill" transform="translate(-5879.42 -2832.82)" fill="#B4CB01"/>
</g>
<g id="Vector">
<use xlink:href="#path25_fill" transform="translate(-5872.02 -2827.36)" fill="#B4CB01"/>
</g>
<g id="Vector">
<use xlink:href="#path26_fill" transform="translate(-5868.86 -2832.88)" fill="#B4CB01"/>
</g>
<g id="Vector">
<use xlink:href="#path27_fill" transform="translate(-5862 -2832.82)" fill="#B4CB01"/>
</g>
</g>
</g>
</g>
</g>
</g>
<defs>
<path id="path0_fill" d="M 39.0983 2.96487C 38.9659 2.85473 38.7992 2.79572 38.6296 2.79572C 38.5849 2.79572 38.5404 2.79995 38.4965 2.80803L 35.9144 3.28452L 35.9144 0.730791C 35.9144 0.48745 35.7934 0.260062 35.5908 0.124168C 35.4679 0.0419017 35.3253 2.22902e-07 35.1815 2.22902e-07C 35.0883 2.22902e-07 34.9943 0.0176835 34.9052 0.0538194L 30.7954 1.7228L 30.7954 0.732328C 30.7954 0.468228 30.653 0.224503 30.4222 0.0949521C 30.31 0.0324832 30.1859 0.00134497 30.0622 0.00134497C 29.9308 0.00134497 29.7988 0.0367121 29.6816 0.107831L 19.6815 6.175L 9.68044 0.107446C 9.56367 0.0367124 9.43148 0.00134497 9.30025 0.00134497C 9.17635 0.00134497 9.05244 0.0324831 8.94068 0.0951442C 8.70964 0.224887 8.56705 0.468421 8.56705 0.732328L 8.56705 1.7228L 4.45724 0.0538194C 4.36841 0.0176835 4.27437 2.22902e-07 4.1811 2.22902e-07C 4.03774 2.22902e-07 3.89437 0.0420939 3.77221 0.124168C 3.56968 0.260062 3.4479 0.487643 3.4479 0.730791L 3.4479 3.28452L 0.866551 2.80803C 0.822039 2.79995 0.777333 2.79572 0.733206 2.79572C 0.563441 2.79572 0.397338 2.85473 0.264763 2.96487C 0.0969258 3.10384 -1.05851e-07 3.30951 -1.05851e-07 3.52671L -1.05851e-07 34.701C -1.05851e-07 35.0927 0.309083 35.4149 0.701218 35.4314L 13.3808 35.9827C 13.3921 35.9833 13.4025 35.984 13.4135 35.984C 13.7773 35.984 14.0808 35.7153 14.1344 35.3601C 14.1795 35.1984 14.17 35.0255 14.1009 34.87C 14.0298 34.711 13.9026 34.5849 13.7455 34.5103C 13.7355 34.5053 13.7259 34.4994 13.7151 34.4953C 13.7087 34.4921 13.7018 34.4873 13.6943 34.4846L 5.00006 31.1497L 5.00006 1.94519L 8.56705 3.39389L 8.56705 29.5024C 8.56705 29.7629 8.70617 30.0039 8.9322 30.1348L 19.1584 36.0594C 19.2379 36.151 19.3389 36.2243 19.4582 36.2687C 19.5412 36.2991 19.6272 36.3135 19.7125 36.3135C 19.9214 36.3135 20.1253 36.2245 20.2667 36.0611L 23.8844 31.887L 26.8415 38.7265C 26.961 39.0031 27.2311 39.1682 27.5148 39.1682C 27.6115 39.1682 27.7104 39.149 27.8052 39.1082L 30.0088 38.1601C 30.1873 38.0832 30.3276 37.9392 30.3996 37.7589C 30.4717 37.5786 30.4682 37.3774 30.391 37.1992L 29.7747 35.7728L 38.6661 35.3457C 39.0561 35.3265 39.3627 35.0053 39.3627 34.6153L 39.3627 3.52671C 39.3625 3.30951 39.2655 3.10384 39.0983 2.96487ZM 8.69191 34.2241L 1.55736 33.9143L 1.55736 4.51506L 3.44828 4.86412L 3.44828 31.711C 3.44828 32.0133 3.63501 32.2849 3.91846 32.3931L 8.69191 34.2241ZM 34.363 1.94519L 34.363 31.1495L 28.7124 33.3165L 27.4234 30.3345L 33.0895 30.5454C 33.0989 30.546 33.1076 30.5463 33.1176 30.5463C 33.4107 30.5463 33.6774 30.3707 33.792 30.0991C 33.9103 29.8186 33.8429 29.4949 33.6219 29.2852L 30.7954 26.6043L 30.7954 3.39389L 34.363 1.94519ZM 29.2594 25.1469L 20.4602 16.7988L 20.4602 7.49627L 29.2594 2.15758L 29.2594 25.1469ZM 10.1038 2.15739L 18.9034 7.49608L 18.9034 17.222C 18.9034 17.2382 18.9075 17.2535 18.9084 17.2693L 18.9739 34.1799L 10.1038 29.0411L 10.1038 2.15739ZM 27.9403 37.3683L 24.7905 30.0841C 24.6904 29.853 24.4783 29.6895 24.2291 29.6514C 24.1919 29.6458 24.1546 29.6429 24.1178 29.6429C 23.9066 29.6429 23.7035 29.7344 23.5632 29.8959L 20.5188 33.4082L 20.4627 18.9327L 30.9927 28.9223L 26.2549 28.7463C 26.2549 28.7463 26.1721 28.7428 26.1632 28.7428C 25.922 28.7428 25.695 28.862 25.5583 29.0615C 25.4167 29.2687 25.3905 29.5338 25.4901 29.7638L 28.6467 37.0639L 27.9403 37.3683ZM 37.8053 33.8322L 30.8185 34.1676L 35.4452 32.3927C 35.7282 32.2845 35.9144 32.0127 35.9144 31.711L 35.9144 4.86412L 37.8053 4.51506L 37.8053 33.8322Z"/>
<path id="path1_fill" d="M 1.81249 5.2249C 1.81249 5.72427 1.40629 6.12907 0.906054 6.12907C 0.405624 6.12907 8.70328e-07 5.72427 8.70328e-07 5.2249L 8.70328e-07 0.904166C 8.70328e-07 0.404606 0.405624 -4.54603e-08 0.906054 -4.54603e-08C 1.40629 -4.54603e-08 1.81249 0.404606 1.81249 0.904166L 1.81249 5.2249Z"/>
<path id="path2_fill" d="M 3.85751 4.1943C 4.10763 4.62659 3.95925 5.17939 3.5255 5.42908C 3.09193 5.67876 2.53793 5.53056 2.28781 5.09809L 0.121532 1.3561C -0.128779 0.923816 0.0199817 0.370823 0.453739 0.121332C 0.887304 -0.128352 1.44111 0.0196511 1.69123 0.452128L 3.85751 4.1943Z"/>
<path id="path3_fill" d="M 5.1108 2.2815C 5.54436 2.53119 5.69255 3.08418 5.44281 3.51666C 5.19212 3.94913 4.63792 4.09714 4.20436 3.84745L 0.453351 1.68718C 0.0197864 1.43731 -0.128782 0.884505 0.121722 0.452028C 0.371648 0.0197433 0.926033 -0.128452 1.35921 0.121423L 5.1108 2.2815Z"/>
<path id="path4_fill" d="M 5.23804 1.24356e-06C 5.73866 1.24356e-06 6.14448 0.404607 6.14448 0.904166C 6.14448 1.40372 5.73866 1.80814 5.23804 1.80814L 0.906439 1.80814C 0.405816 1.80814 0.000385306 1.40353 -8.52686e-08 0.903972C -8.52686e-08 0.404798 0.405817 0.000191884 0.906246 0.000191884L 5.23804 0.000191884L 5.23804 1.24356e-06Z"/>
<path id="path5_fill" d="M 4.20467 0.121423C 4.63823 -0.12826 5.19262 0.0193587 5.44331 0.452028C 5.69343 0.885082 5.54429 1.43731 5.11092 1.68718L 1.35952 3.84726C 0.926535 4.09714 0.372342 3.94875 0.121453 3.51608C -0.128666 3.08399 0.0199028 2.53137 0.453467 2.28169L 4.20467 0.121423Z"/>
<path id="path6_fill" d="M 0.453263 1.68736C 0.0196986 1.43729 -0.128673 0.884681 0.121639 0.452012C 0.371757 0.0195346 0.925948 -0.128468 1.3599 0.1216L 5.11091 2.28168C 5.54447 2.53098 5.69285 3.08455 5.44311 3.51664C 5.19261 3.9497 4.63822 4.09731 4.20504 3.84782L 0.453263 1.68736Z"/>
<path id="path7_fill" d="M 0.906632 1.80795C 0.406009 1.80795 2.54042e-06 1.40353 2.54042e-06 0.903588C 2.54042e-06 0.404413 0.406009 -3.75432e-07 0.906632 0.000191837L 5.23823 1.19663e-06C 5.73847 1.19663e-06 6.1439 0.404797 6.14409 0.903972C 6.14409 1.40334 5.73847 1.80795 5.23823 1.80795L 0.906632 1.80795Z"/>
<path id="path8_fill" d="M 1.36024 3.84761C 0.926676 4.0973 0.371903 3.94929 0.121399 3.51624C -0.128913 3.08415 0.0204275 2.53115 0.453799 2.28166L 4.20538 0.121197C 4.63856 -0.128295 5.19237 0.0197086 5.44345 0.452186C 5.69318 0.884471 5.54481 1.43747 5.11201 1.68715L 1.36024 3.84761Z"/>
<path id="path9_fill" d="M 1.69071 5.09795C 1.44117 5.53043 0.886402 5.67882 0.452837 5.42875C 0.0196581 5.17926 -0.128721 4.62626 0.121783 4.19398L 2.2871 0.452186C 2.53722 0.0197093 3.09142 -0.128294 3.52517 0.121197C 3.95874 0.370881 4.10711 0.923682 3.85699 1.35578L 1.69071 5.09795Z"/>
<path id="path10_fill" d="M 14.5705 21.3918C 14.4537 21.8148 14.3485 22.2018 14.2554 22.5553C 14.1617 22.8841 14.057 23.1951 13.9402 23.4889C 13.8229 23.7832 13.7066 23.9996 13.5902 24.1409C 13.333 24.3997 13.0651 24.5522 12.7847 24.5984C 12.5043 24.6459 12.2238 24.6688 11.9439 24.6688L 11.1383 24.6688C 10.8584 24.6688 10.578 24.6455 10.2975 24.5984C 10.0176 24.5517 9.74877 24.3992 9.49199 24.1409C 9.37519 23.9991 9.25838 23.7827 9.14204 23.4889C 9.02524 23.1951 8.92003 22.8841 8.82687 22.5553C 8.73324 22.2018 8.62849 21.8148 8.51169 21.3918L 4.27346 4.51004C 4.24982 4.41723 4.20347 4.3692 4.13348 4.3692C 4.06349 4.3692 4.02827 4.41723 4.02827 4.51004L 3.71309 24.6697L -4.52635e-07 24.6697L 0.385631 1.83227C 0.408806 1.22089 0.613208 0.763412 0.998838 0.457955C 1.38401 0.153431 1.82201 5.12343e-06 2.31193 5.12343e-06L 4.37867 5.12343e-06C 5.00903 5.12343e-06 5.511 0.0475701 5.88504 0.140373C 6.25816 0.235041 6.56175 0.434628 6.79535 0.740085C 7.02849 1.04554 7.22733 1.46899 7.39141 2.00949C 7.5541 2.54952 7.74089 3.26629 7.95132 4.15888L 11.4544 18.8199L 11.5244 19.2074L 11.6296 18.8199L 15.1323 4.15888C 15.3427 3.26629 15.5291 2.54952 15.6927 2.00949C 15.8558 1.46899 16.0547 1.04601 16.2883 0.740085C 16.5214 0.434628 16.825 0.235041 17.199 0.140373C 17.5722 0.0475701 18.0751 5.12343e-06 18.7054 5.12343e-06L 20.7717 5.12343e-06C 21.2625 5.12343e-06 21.7001 0.153431 22.0852 0.457955C 22.4709 0.763412 22.6748 1.22136 22.6985 1.83227L 23.0836 24.6697L 19.3705 24.6697L 19.0554 4.51004C 19.0554 4.41723 19.0201 4.3692 18.9501 4.3692C 18.8801 4.3692 18.8333 4.41723 18.8102 4.51004L 14.5705 21.3918Z"/>
<path id="path11_fill" d="M 3.64356 0.000926658L 5.67461 11.5253C 5.79142 12.1833 5.92583 12.6883 6.07739 13.0409C 6.22942 13.3939 6.4278 13.6523 6.67345 13.816C 6.91864 13.9811 7.21574 14.0748 7.56615 14.0977C 7.91655 14.1219 8.34854 14.1331 8.86209 14.1331L 9.28249 14.1331L 11.7344 0.000471242L 15.4127 0.000471242L 12.12 18.7495C 11.8623 20.183 11.6176 21.3927 11.384 22.38C 11.1504 23.3663 10.8412 24.1591 10.4561 24.7588C 10.0709 25.3576 9.56847 25.7862 8.95016 26.045C 8.33093 26.3038 7.51934 26.432 6.5154 26.432C 5.76778 26.432 5.12583 26.4027 4.5891 26.3448C 4.05144 26.2856 3.60834 26.2096 3.25793 26.1149C 2.83754 26.0207 2.48759 25.9037 2.20671 25.7628L 2.52236 22.6262C 2.73186 22.6495 2.96546 22.6728 3.2227 22.6961C 3.45584 22.7195 3.72468 22.7311 4.02827 22.7311C 4.3314 22.7311 4.67021 22.7311 5.04426 22.7311C 5.55781 22.7311 5.98979 22.7195 6.34019 22.6961C 6.69014 22.6724 6.98817 22.5786 7.23336 22.4145C 7.47855 22.2494 7.67692 21.992 7.82849 21.6394C 7.98005 21.2869 8.11447 20.7813 8.23174 20.1238L 8.65213 17.7976C 8.4417 17.7976 8.23173 17.8037 8.02177 17.8158C 7.8118 17.8275 7.60137 17.8331 7.39094 17.8331C 6.38654 17.8331 5.57542 17.7039 4.95665 17.4451C 4.33742 17.1872 3.83591 16.7586 3.45028 16.1594C 3.06465 15.5596 2.75503 14.7673 2.52236 13.7801C 2.28829 12.7938 2.0431 11.5831 1.78632 10.1505L -2.43291e-06 1.59396e-06L 3.64356 1.59396e-06L 3.64356 0.000926658Z"/>
<path id="path12_fill" d="M 13.8702 20.1592C 13.9165 20.2534 13.9634 20.3001 14.0106 20.3001C 14.0802 20.3001 14.1154 20.2646 14.1154 20.1937L 14.1154 20.1242L 14.1506 0.000468168L 17.7228 0.000468168L 17.7228 22.8374C 17.6996 23.4493 17.4957 23.9068 17.1105 24.2118C 16.7253 24.5177 16.2878 24.6702 15.7974 24.6702L 14.1154 24.6702C 13.7186 24.6702 13.2806 24.6119 12.8018 24.4934C 12.323 24.3769 11.9212 24.0831 11.594 23.613C 11.4772 23.425 11.3256 23.1485 11.1383 22.7847C 10.9515 22.421 10.7763 22.0391 10.6137 21.6399C 10.4032 21.1931 10.2049 20.7114 10.0176 20.1937L 3.85306 4.5105C 3.80579 4.4177 3.75944 4.36966 3.71216 4.36966C 3.6431 4.36966 3.60741 4.4051 3.60741 4.47599L 3.60741 4.54595L 3.57265 24.6697L -2.82897e-07 24.6697L -2.82897e-07 1.83228C 0.0227111 1.2209 0.22804 0.763405 0.613207 0.457948C 0.998375 0.153424 1.43592 -1.4801e-06 1.9263 -1.4801e-06L 3.60787 -1.4801e-06C 4.00463 -1.4801e-06 4.44263 0.0592202 4.92143 0.176273C 5.39976 0.293792 5.803 0.587597 6.12977 1.05767C 6.24611 1.24561 6.39165 1.52169 6.56731 1.88544C 6.74205 2.25012 6.92328 2.63205 7.11053 3.03078C 7.2964 3.47754 7.49617 3.95881 7.70613 4.47599L 13.8702 20.1592Z"/>
<path id="path13_fill" d="M 7.04007 3.52418L -3.39476e-06 3.52418L -3.39476e-06 -1.4801e-06L 17.6885 -1.4801e-06L 17.6885 3.52418L 10.648 3.52418L 10.648 24.6702L 7.04054 24.6702L 7.04054 3.52418L 7.04007 3.52418Z"/>
<path id="path14_fill" d="M 4.75267e-06 1.82167e-06L 3.60741 1.82167e-06L 3.60741 24.6697L 4.75267e-06 24.6697L 4.75267e-06 1.82167e-06Z"/>
<path id="path15_fill" d="M 7.91146 7.24143L 7.91146 3.06017C 7.91146 2.72533 7.90636 2.45718 7.89709 2.25572C 7.88735 2.05425 7.85167 1.89897 7.79002 1.78844C 7.72838 1.67932 7.62826 1.60703 7.49014 1.57299C 7.35248 1.53941 7.15966 1.52309 6.91215 1.52309C 6.81667 1.52309 6.69756 1.53522 6.5548 1.559C 6.41204 1.58325 6.26928 1.60889 6.12652 1.63827C 5.98377 1.66672 5.84611 1.69517 5.71216 1.72409C 5.57867 1.75347 5.47902 1.77725 5.41227 1.7959C 5.42201 1.98804 5.42664 2.19603 5.42664 2.42174C 5.42664 2.64606 5.42664 2.89322 5.42664 3.16137L 5.42664 7.24143L 3.9555 7.24143L 3.9555 3.06017C 3.9555 2.72533 3.9504 2.45718 3.94113 2.25572C 3.9314 2.05425 3.89571 1.89897 3.83406 1.78844C 3.77195 1.67932 3.67183 1.60703 3.53418 1.57299C 3.39605 1.53941 3.20324 1.52309 2.95573 1.52309C 2.86025 1.52309 2.74391 1.53522 2.60579 1.559C 2.46813 1.58325 2.32723 1.60889 2.18447 1.63827C 2.04171 1.66672 1.90359 1.69517 1.77056 1.72409C 1.63708 1.75347 1.53696 1.77725 1.47068 1.7959L 1.47068 7.24143L -1.52764e-06 7.24143L -1.52764e-06 0.0578331L 1.47068 0.0578331L 1.47068 0.445834C 1.5657 0.40806 1.68713 0.361892 1.83453 0.309194C 1.98238 0.256964 2.14646 0.20892 2.32723 0.165084C 2.50799 0.12218 2.70312 0.083472 2.91309 0.0503614C 3.12213 0.0167845 3.33673 0.000464866 3.5555 0.000464866C 4.00277 0.000464866 4.34808 0.0461665 4.59096 0.137104C 4.8329 0.227575 5.01691 0.374006 5.14066 0.575001C 5.14993 0.565208 5.22641 0.531166 5.36917 0.474738C 5.51239 0.416911 5.69269 0.351623 5.91193 0.279806C 6.1307 0.208921 6.3782 0.144106 6.65445 0.0858127C 6.93069 0.0284521 7.21574 -4.78187e-06 7.51146 -4.78187e-06C 7.9972 -4.78187e-06 8.36847 0.0522319 8.62571 0.157626C 8.88249 0.263953 9.06603 0.438367 9.17542 0.682266C 9.28434 0.926631 9.34691 1.25261 9.36082 1.65973C 9.37472 2.06732 9.3826 2.56771 9.3826 3.16137L 9.3826 7.24143L 7.91146 7.24143L 7.91146 7.24143Z"/>
<path id="path16_fill" d="M 1.48597 6.14812e-06L 2.31425 4.69844C 2.36199 4.96612 2.41668 5.17318 2.47833 5.31635C 2.53997 5.45999 2.62155 5.56492 2.7212 5.63207C 2.82132 5.69969 2.94229 5.73839 3.08505 5.74772C 3.22827 5.75704 3.40393 5.76124 3.6139 5.76124L 3.78493 5.76124L 4.78469 6.14812e-06L 6.28411 6.14812e-06L 4.94182 7.64389C 4.83707 8.22915 4.73695 8.7216 4.6424 9.12406C 4.54692 9.52698 4.42085 9.85017 4.26373 10.0941C 4.1066 10.3384 3.90173 10.5128 3.65005 10.6187C 3.39791 10.7241 3.06651 10.7768 2.65724 10.7768C 2.35226 10.7768 2.09084 10.7647 1.87161 10.7414C 1.65237 10.7166 1.47161 10.6854 1.32885 10.6472C 1.15736 10.6094 1.0146 10.5618 0.900115 10.504L 1.0285 9.22526C 1.11425 9.23505 1.20927 9.24392 1.31448 9.25371C 1.4095 9.2635 1.51888 9.26817 1.64264 9.26817C 1.76593 9.26817 1.90452 9.26817 2.05701 9.26817C 2.26651 9.26817 2.44264 9.26304 2.5854 9.25371C 2.72815 9.24392 2.84913 9.20568 2.9497 9.13899C 3.04982 9.07183 3.13047 8.9669 3.19211 8.8228C 3.25376 8.6787 3.30845 8.47259 3.35619 8.20537L 3.52768 7.25635C 3.44147 7.25635 3.35619 7.25868 3.26998 7.26381C 3.18423 7.26894 3.09895 7.27127 3.01274 7.27127C 2.60347 7.27127 2.27253 7.21905 2.02039 7.11365C 1.76824 7.00733 1.56385 6.83291 1.40672 6.58901C 1.24959 6.34465 1.12306 6.021 1.02804 5.61947C 0.932561 5.21702 0.833367 4.72315 0.728616 4.13929L 7.92112e-07 0.000931213L 1.48597 0.000931213L 1.48597 6.14812e-06Z"/>
<path id="path17_fill" d="M -3.28161e-06 0.876726C -3.28161e-06 0.540956 0.059329 0.311526 0.178448 0.187012C 0.297104 0.062031 0.523757 6.48968e-06 0.857012 6.48968e-06C 1.1898 6.48968e-06 1.4183 0.0624974 1.54252 0.187012C 1.66628 0.311526 1.72792 0.540956 1.72792 0.876726C 1.72792 1.21203 1.66628 1.43915 1.54252 1.559C 1.4183 1.67931 1.19027 1.73854 0.857012 1.73854C 0.523757 1.73854 0.297104 1.67931 0.178448 1.559C 0.0588656 1.43961 -3.28161e-06 1.21203 -3.28161e-06 0.876726Z"/>
<path id="path18_fill" d="M -6.22374e-07 0.0573668L 1.47068 0.0573668L 1.47068 0.445367C 1.5657 0.407593 1.68713 0.361425 1.83499 0.308728C 1.98238 0.256497 2.14646 0.208454 2.32769 0.164617C 2.50845 0.121713 2.70359 0.0830057 2.91309 0.0498951C 3.12305 0.0163181 3.33719 -1.4801e-06 3.55596 -1.4801e-06C 4.04171 -1.4801e-06 4.41297 0.0522352 4.66975 0.15763C 4.92699 0.263956 5.11007 0.43837 5.21992 0.682269C 5.32931 0.926635 5.39095 1.2526 5.40532 1.65972C 5.41969 2.06731 5.42664 2.5677 5.42664 3.16136L 5.42664 7.24143L 3.95549 7.24143L 3.95549 3.06017C 3.95549 2.72533 3.95086 2.45718 3.94113 2.25572C 3.93186 2.05426 3.89617 1.89896 3.83452 1.78843C 3.77288 1.67931 3.67277 1.60704 3.53464 1.57299C 3.39698 1.53942 3.20416 1.52308 2.95666 1.52308C 2.86117 1.52308 2.74438 1.53522 2.60672 1.559C 2.4686 1.58325 2.32815 1.60889 2.18493 1.63827C 2.04218 1.66672 1.90452 1.69516 1.77057 1.72408C 1.63754 1.75346 1.53742 1.77725 1.47114 1.7959L 1.47114 7.24143L 0.000466158 7.24143L 0.000466158 0.0573668L -6.22374e-07 0.0573668Z"/>
<path id="path19_fill" d="M 2.45654 9.10833e-07L 2.45654 1.48019L 5.0271 1.48019L 4.984 2.7589L 2.45608 2.83073L 2.45608 6.03452C 2.45608 6.37029 2.46118 6.62678 2.47045 6.80352C 2.47972 6.9812 2.51541 7.10478 2.57705 7.17706C 2.63916 7.24841 2.73927 7.28759 2.8774 7.29179C 3.01506 7.29645 3.20741 7.29879 3.45584 7.29879C 3.56986 7.29879 3.72468 7.29179 3.91981 7.2778C 4.11494 7.26334 4.30776 7.24749 4.49825 7.2279C 4.71703 7.20878 4.95016 7.18453 5.19814 7.15609L 5.34089 8.41988C 5.08365 8.49729 4.81714 8.56398 4.54136 8.62134C 4.30312 8.66984 4.03893 8.71229 3.74832 8.75053C 3.45817 8.7883 3.1606 8.80882 2.85608 8.80882C 2.34206 8.80882 1.95643 8.7384 1.69919 8.5999C 1.44194 8.46093 1.25886 8.2478 1.14948 7.96054C 1.04009 7.6728 0.985395 7.30204 0.985395 6.84736C 0.985395 6.3922 0.985395 5.84798 0.985395 5.21608L 0.985395 2.87456L 7.35532e-07 2.90301L 7.35532e-07 1.48064L 0.985395 1.48064L 0.985395 0.000470559L 2.45654 0.000470559L 2.45654 9.10833e-07Z"/>
<path id="path20_fill" d="M 2.54607e-06 0.876737C 2.54607e-06 0.540968 0.0597946 0.311524 0.178914 0.187009C 0.298033 0.0620284 0.524215 3.87104e-06 0.857471 3.87104e-06C 1.19073 3.87104e-06 1.41877 0.0624948 1.54299 0.187009C 1.66674 0.311524 1.72838 0.540968 1.72838 0.876737C 1.72838 1.21204 1.66628 1.43914 1.54299 1.55899C 1.41877 1.67884 1.19073 1.73854 0.857471 1.73854C 0.524215 1.73854 0.298033 1.67884 0.178914 1.55899C 0.0597946 1.43914 2.54607e-06 1.21157 2.54607e-06 0.876737ZM 0.129315 2.917L 1.6 2.917L 1.6 10.1006L 0.129315 10.1006L 0.129315 2.917Z"/>
<path id="path21_fill" d="M 1.41449e-06 0.876726C 1.41449e-06 0.540956 0.0588632 0.311526 0.178446 0.187012C 0.297565 0.062031 0.523751 6.48968e-06 0.856543 6.48968e-06C 1.1898 6.48968e-06 1.4183 0.0624974 1.54206 0.187012C 1.66581 0.311526 1.72746 0.540956 1.72746 0.876726C 1.72746 1.21203 1.66581 1.43915 1.54206 1.559C 1.4183 1.67931 1.1898 1.73854 0.856543 1.73854C 0.523288 1.73854 0.297101 1.67931 0.178446 1.559C 0.0593267 1.43961 1.41449e-06 1.21203 1.41449e-06 0.876726Z"/>
<path id="path22_fill" d="M 1.49988 4.3123C 1.50915 4.71382 1.54484 5.02535 1.60695 5.24593C 1.66906 5.46698 1.75713 5.62646 1.87115 5.72719C 1.98517 5.82792 2.13256 5.8853 2.31379 5.89975C 2.49502 5.91374 2.71378 5.92073 2.97056 5.92073C 3.14206 5.92073 3.36083 5.91187 3.6278 5.89228C 3.89431 5.87316 4.15156 5.85451 4.39906 5.83493C 4.69385 5.80601 4.99373 5.77756 5.29825 5.74818L 5.45584 7.1421C 5.0183 7.21858 4.57937 7.26848 4.14183 7.29226C 3.70382 7.31651 3.31819 7.32864 2.98493 7.32864C 2.52792 7.32864 2.11634 7.30904 1.74925 7.27127C 1.38262 7.23209 1.06883 7.09639 0.80695 6.86135C 0.545537 6.62678 0.345303 6.2607 0.20718 5.76264C 0.0690579 5.26412 7.92112e-07 4.55481 7.92112e-07 3.63564C 7.92112e-07 2.79248 0.0495975 2.1298 0.150177 1.64527C 0.250292 1.16167 0.399999 0.797915 0.600231 0.553549C 0.800462 0.309184 1.05446 0.155759 1.36407 0.0937354C 1.67323 0.031245 2.04218 5.00958e-06 2.47045 5.00958e-06L 3.34182 5.00958e-06C 3.7891 5.00958e-06 4.15341 0.0550248 4.43429 0.165549C 4.71471 0.27514 4.9344 0.436502 5.09107 0.646824C 5.24819 0.857613 5.35248 1.11364 5.40532 1.4149C 5.45723 1.71662 5.48412 2.05473 5.48412 2.42827C 5.48412 2.65771 5.48412 2.85171 5.48412 3.01026C 5.48412 3.16789 5.47901 3.31432 5.46974 3.44816C 5.46047 3.58247 5.45028 3.71631 5.44101 3.85062C 5.43128 3.98493 5.41691 4.13742 5.3979 4.31044L 1.49988 4.31044L 1.49988 4.3123ZM 2.50011 1.33748C 2.25214 1.3566 2.06164 1.39205 1.92862 1.44521C 1.79467 1.49791 1.69733 1.58884 1.63568 1.71802C 1.57404 1.84673 1.53835 2.01788 1.52908 2.2282C 1.51935 2.43899 1.51472 2.70201 1.51472 3.01866L 4.17102 3.01866C 4.17102 2.86523 4.18076 2.69268 4.19976 2.50148C 4.2183 2.30981 4.20949 2.12747 4.17102 1.95492C 4.13301 1.78284 4.05932 1.63688 3.94947 1.51703C 3.84008 1.39717 3.65654 1.33748 3.3993 1.33748L 2.50011 1.33748L 2.50011 1.33748Z"/>
<path id="path23_fill" d="M -1.81054e-06 7.02644C -1.81054e-06 6.10634 0.0685989 5.40076 0.207185 4.90643C 0.345307 4.41351 0.545074 4.05721 0.807415 3.83616C 1.06836 3.61558 1.38262 3.49386 1.74971 3.47008C 2.11587 3.44583 2.52839 3.4435 2.98447 3.46262C 3.21344 3.48128 3.44657 3.50552 3.68481 3.53443C 3.92258 3.56288 4.165 3.59692 4.41343 3.6347L 4.41343 4.78187e-06L 5.88365 4.78187e-06L 5.88365 10.7754C 5.45538 10.7945 5.09617 10.8066 4.80556 10.8118C 4.51541 10.8169 4.26326 10.8192 4.04866 10.8192C 3.83452 10.8192 3.64681 10.8192 3.48458 10.8192C 3.32189 10.8192 3.15643 10.8192 2.98447 10.8192C 2.53719 10.8192 2.13024 10.7922 1.76407 10.74C 1.39698 10.6877 1.08274 10.5385 0.820859 10.2946C 0.55991 10.0507 0.357358 9.67435 0.214137 9.16697C 0.0718431 8.65958 -1.81054e-06 7.94654 -1.81054e-06 7.02644ZM 2.97149 9.49761C 3.16199 9.49761 3.38771 9.49528 3.64959 9.49061C 3.91054 9.48548 4.16546 9.47849 4.4139 9.46869L 4.4139 4.97079C 4.1942 4.93302 3.95179 4.89757 3.68528 4.86399C 3.4183 4.82995 3.18007 4.80383 2.97149 4.78471C 2.69478 4.77492 2.46118 4.78471 2.2716 4.81363C 2.08064 4.84208 1.92862 4.93348 1.8146 5.08644C 1.69965 5.23986 1.61853 5.47444 1.57218 5.79062C 1.52398 6.10681 1.50081 6.54237 1.50081 7.09872C 1.50081 7.663 1.52398 8.10697 1.57218 8.42781C 1.619 8.74866 1.69965 8.98835 1.8146 9.14645C 1.92862 9.30407 2.08064 9.40294 2.2716 9.44072C 2.46118 9.47849 2.69478 9.49761 2.97149 9.49761Z"/>
<path id="path24_fill" d="M 2.984 7.28479C 2.27902 7.28479 1.72978 7.21297 1.33441 7.06981C 0.939512 6.9257 0.644265 6.65477 0.449596 6.25744C 0.253536 5.86011 0.132095 5.30889 0.0852812 4.60471C 0.0370774 3.90146 0.014366 2.98881 0.014366 1.86771L 1.9237e-06 6.14812e-06L 1.47068 6.14812e-06L 1.48505 2.15545C 1.49478 2.89274 1.49478 3.50179 1.48505 3.98073C 1.47532 4.4592 1.50637 4.84021 1.57729 5.12281C 1.64867 5.40495 1.7891 5.60128 1.99907 5.71134C 2.20764 5.8214 2.53626 5.87643 2.984 5.87643C 3.43174 5.87643 3.76037 5.8214 3.96987 5.71134C 4.17891 5.60175 4.32166 5.40542 4.39814 5.12281C 4.47462 4.84021 4.50706 4.4592 4.49872 3.98073C 4.48852 3.50179 4.48852 2.89274 4.49872 2.15545L 4.49872 6.14812e-06L 5.96893 6.14812e-06L 5.96893 1.86771C 5.96893 2.98881 5.94252 3.90146 5.8906 4.60471C 5.83823 5.30889 5.71447 5.86011 5.51934 6.25744C 5.32467 6.65524 5.02664 6.92617 4.62711 7.06981C 4.22711 7.21251 3.67925 7.28479 2.984 7.28479Z"/>
<path id="path25_fill" d="M 1.75396e-06 0.876726C 1.75396e-06 0.540956 0.060254 0.311526 0.178446 0.187012C 0.298029 0.062031 0.523751 6.48968e-06 0.85747 6.48968e-06C 1.19026 6.48968e-06 1.41923 0.0624974 1.54299 0.187012C 1.6672 0.311526 1.72838 0.540956 1.72838 0.876726C 1.72838 1.21203 1.66674 1.43915 1.54299 1.559C 1.41923 1.67931 1.19026 1.73854 0.85747 1.73854C 0.523751 1.73854 0.298029 1.67931 0.178446 1.559C 0.060254 1.43961 1.75396e-06 1.21203 1.75396e-06 0.876726Z"/>
<path id="path26_fill" d="M -2.65923e-06 0.0573668L 1.47068 0.0573668L 1.47068 0.445367C 1.56662 0.407593 1.68806 0.361425 1.83499 0.308728C 1.98284 0.256497 2.14692 0.208454 2.32769 0.164617C 2.50938 0.121713 2.70405 0.0830057 2.91355 0.0498951C 3.12352 0.0163181 3.33719 -1.4801e-06 3.55642 -1.4801e-06C 4.04263 -1.4801e-06 4.4139 0.0522352 4.67021 0.15763C 4.92745 0.263956 5.111 0.43837 5.22039 0.682269C 5.32977 0.926635 5.39188 1.2526 5.40625 1.65972C 5.41969 2.06731 5.4271 2.5677 5.4271 3.16136L 5.4271 7.24143L 3.95643 7.24143L 3.95643 3.06017C 3.95643 2.72533 3.95132 2.45718 3.94205 2.25572C 3.93278 2.05426 3.8971 1.89896 3.83545 1.78843C 3.77288 1.67931 3.67322 1.60704 3.5351 1.57299C 3.39698 1.53942 3.20417 1.52308 2.95666 1.52308C 2.86211 1.52308 2.7453 1.53522 2.60718 1.559C 2.46905 1.58325 2.32816 1.60889 2.18632 1.63827C 2.0431 1.66672 1.90544 1.69516 1.77149 1.72408C 1.63893 1.75346 1.53928 1.77725 1.47161 1.7959L 1.47161 7.24143L 0.000923829 7.24143L 0.000923829 0.0573668L -2.65923e-06 0.0573668Z"/>
<path id="path27_fill" d="M 6.72676 0.142708L 6.68411 1.43588L 5.54159 1.43588C 5.67415 1.53241 5.765 1.70682 5.8132 1.96052C 5.86001 2.21468 5.88457 2.56724 5.88457 3.0168C 5.87438 3.41925 5.84843 3.78766 5.80579 4.12343C 5.76315 4.4592 5.64588 4.74601 5.45538 4.98617C 5.26488 5.22494 4.97242 5.41148 4.57705 5.54625C 4.18169 5.68056 3.63707 5.74772 2.94182 5.74772C 2.84634 5.74772 2.77775 5.74772 2.73511 5.74772C 2.692 5.74772 2.65631 5.74446 2.62803 5.74026C 2.5993 5.7356 2.56639 5.73093 2.52838 5.7258C 2.49084 5.72114 2.43754 5.71321 2.3708 5.70435L 2.27114 6.46589C 2.26141 6.50367 2.26141 6.53771 2.27114 6.56616C 2.28968 6.63424 2.35179 6.66223 2.45654 6.6529L 3.55596 6.59508C 4.15619 6.5573 4.63174 6.57362 4.98447 6.64544C 5.33673 6.71726 5.60555 6.83943 5.79095 7.01151C 5.97635 7.18359 6.09546 7.40185 6.14784 7.66533C 6.20021 7.92882 6.22664 8.23754 6.22664 8.59243C 6.22664 8.97437 6.20254 9.3078 6.15526 9.59088C 6.10799 9.87301 5.98932 10.1057 5.79836 10.2876C 5.6074 10.4695 5.32652 10.6038 4.95572 10.6901C 4.58446 10.7763 4.07044 10.8188 3.4132 10.8188C 3.01413 10.8188 2.64287 10.8146 2.29942 10.8048C 1.95736 10.795 1.65748 10.7805 1.4007 10.7614C 1.09572 10.7428 0.819 10.7185 0.572418 10.6901L 0.629436 9.18096C 1.03824 9.21966 1.44751 9.25278 1.85724 9.28216C 2.20903 9.31061 2.58307 9.33439 2.97751 9.35397C 3.37334 9.37356 3.72746 9.37776 4.04171 9.36843C 4.23267 9.36843 4.38191 9.34651 4.49176 9.30361C 4.60161 9.25977 4.68458 9.20475 4.74252 9.13806C 4.79953 9.07091 4.83475 8.99209 4.84912 8.90022C 4.86256 8.81022 4.86998 8.70715 4.86998 8.59243C 4.86998 8.51548 4.86488 8.44133 4.85654 8.36905C 4.84681 8.29723 4.81807 8.23475 4.77033 8.18251C 4.72259 8.12982 4.64425 8.08644 4.53394 8.05333C 4.42502 8.02022 4.27067 8.00344 4.07044 8.00344L 1.49988 8.04634C 1.34739 8.04634 1.20649 8.02023 1.07903 7.968C 0.950641 7.91437 0.845417 7.83788 0.763841 7.73762C 0.683656 7.63642 0.633138 7.51423 0.614598 7.37153C 0.595595 7.22743 0.618766 7.07028 0.685973 6.8968L 1.17126 5.40309C 0.904743 5.28791 0.695715 5.14893 0.543224 4.98617C 0.390732 4.82249 0.274852 4.63875 0.192813 4.43216C 0.112164 4.2265 0.0602541 3.99425 0.0352252 3.73543C 0.0120503 3.47661 4.52635e-06 3.18981 4.52635e-06 2.87363C 4.52635e-06 2.42314 0.0333671 2.01835 0.100574 1.65926C 0.167318 1.29971 0.304516 0.997975 0.514481 0.754076C 0.724446 0.510177 1.02155 0.323177 1.40811 0.193999C 1.79328 0.0648213 2.30498 6.14812e-06 2.94276 6.14812e-06L 6.72676 0.142708ZM 2.94229 4.44054C 3.30475 4.44054 3.5949 4.41071 3.81367 4.35381C 4.0329 4.29552 4.20161 4.20784 4.32073 4.08705C 4.43985 3.9672 4.51865 3.80726 4.55712 3.60626C 4.59467 3.4048 4.61321 3.1609 4.61321 2.8741C 4.61321 2.66284 4.59467 2.46931 4.55712 2.29116C 4.51865 2.11488 4.44217 1.96099 4.32815 1.83227C 4.2132 1.7031 4.04774 1.60517 3.82804 1.53755C 3.60881 1.47039 3.31448 1.43635 2.94276 1.43635C 2.6095 1.43635 2.33789 1.46106 2.12885 1.50816C 1.91935 1.55666 1.75759 1.63735 1.64357 1.75253C 1.52955 1.86725 1.4526 2.01601 1.41552 2.19789C 1.37705 2.3807 1.35759 2.60501 1.35759 2.87363C 1.35759 3.14178 1.37705 3.37401 1.41552 3.57034C 1.4526 3.76667 1.52955 3.92943 1.64357 4.05861C 1.75759 4.18778 1.91935 4.28339 2.12885 4.34542C 2.33789 4.40931 2.6095 4.44054 2.94229 4.44054Z"/>
</defs>
</svg>
